<?xml version="1.0" encoding="UTF-8" standalone="no"?>
<!DOCTYPE svg PUBLIC "-//W3C//DTD SVG 1.1//EN"
 "http://www.w3.org/Graphics/SVG/1.1/DTD/svg11.dtd">
<!-- Generated by graphviz version 2.43.0 (0)
 -->
<!-- Title: %3 Pages: 1 -->
<svg width="678pt" height="45pt"
 viewBox="0.00 0.00 678.00 45.00" xmlns="http://www.w3.org/2000/svg" xmlns:xlink="http://www.w3.org/1999/xlink">
<g id="graph0" class="graph" transform="scale(1 1) rotate(0) translate(4 41)">
<title>%3</title>
<polygon fill="white" stroke="transparent" points="-4,4 -4,-41 674,-41 674,4 -4,4"/>
<!-- 140188457869712 -->
<g id="node1" class="node">
<title>140188457869712</title>
<polygon fill="none" stroke="black" points="385,-0.5 385,-36.5 670,-36.5 670,-0.5 385,-0.5"/>
<text text-anchor="middle" x="424.5" y="-14.8" font-family="Times,serif" font-size="14.00">add9712</text>
<polyline fill="none" stroke="black" points="464,-0.5 464,-36.5 "/>
<text text-anchor="middle" x="515" y="-14.8" font-family="Times,serif" font-size="14.00">data 6.0000</text>
<polyline fill="none" stroke="black" points="566,-0.5 566,-36.5 "/>
<text text-anchor="middle" x="618" y="-14.8" font-family="Times,serif" font-size="14.00">grad 1.0000</text>
</g>
<!-- 140188457869712+ -->
<g id="node2" class="node">
<title>140188457869712+</title>
<ellipse fill="none" stroke="black" cx="322" cy="-18.5" rx="27" ry="18"/>
<text text-anchor="middle" x="322" y="-14.8" font-family="Times,serif" font-size="14.00">+</text>
</g>
<!-- 140188457869712+&#45;&gt;140188457869712 -->
<g id="edge1" class="edge">
<title>140188457869712+&#45;&gt;140188457869712</title>
<path fill="none" stroke="black" d="M349.19,-18.5C356.6,-18.5 365.23,-18.5 374.63,-18.5"/>
<polygon fill="black" stroke="black" points="374.67,-22 384.67,-18.5 374.67,-15 374.67,-22"/>
</g>
<!-- 140188457640848 -->
<g id="node3" class="node">
<title>140188457640848</title>
<polygon fill="none" stroke="black" points="0,-0.5 0,-36.5 259,-36.5 259,-0.5 0,-0.5"/>
<text text-anchor="middle" x="26.5" y="-14.8" font-family="Times,serif" font-size="14.00">0848</text>
<polyline fill="none" stroke="black" points="53,-0.5 53,-36.5 "/>
<text text-anchor="middle" x="104" y="-14.8" font-family="Times,serif" font-size="14.00">data 3.0000</text>
<polyline fill="none" stroke="black" points="155,-0.5 155,-36.5 "/>
<text text-anchor="middle" x="207" y="-14.8" font-family="Times,serif" font-size="14.00">grad 2.0000</text>
</g>
<!-- 140188457640848&#45;&gt;140188457869712+ -->
<g id="edge2" class="edge">
<title>140188457640848&#45;&gt;140188457869712+</title>
<path fill="none" stroke="black" d="M259.15,-18.5C268.34,-18.5 277.05,-18.5 284.89,-18.5"/>
<polygon fill="black" stroke="black" points="284.98,-22 294.98,-18.5 284.98,-15 284.98,-22"/>
</g>
</g>
</svg>
